<svg xmlns="http://www.w3.org/2000/svg" width="360" height="60" viewBox="0 0 360 60"><path fill="#282828" d="M90 0C73.433 0 60 13.433 60 30c0 16.568 13.433 30 30 30s30-13.432 30-30c0-16.571-13.433-30-30-30zm14.927 23.266l.022.956c0 9.762-7.431 21.012-21.018 21.012a20.924 20.924 0 0 1-11.321-3.317 14.848 14.848 0 0 0 10.936-3.053 7.397 7.397 0 0 1-6.9-5.132 7.598 7.598 0 0 0 3.339-.129c-3.378-.682-5.926-3.664-5.926-7.24v-.094a7.375 7.375 0 0 0 3.346.927 7.384 7.384 0 0 1-3.285-6.147c0-1.353.362-2.62.998-3.711a20.96 20.96 0 0 0 15.224 7.718 7.321 7.321 0 0 1-.19-1.685 7.386 7.386 0 0 1 7.387-7.383c2.123 0 4.043.896 5.394 2.331a14.984 14.984 0 0 0 4.691-1.791 7.418 7.418 0 0 1-3.248 4.087 14.786 14.786 0 0 0 4.24-1.163 14.964 14.964 0 0 1-3.689 3.814z"/><g fill="#282828"><path d="M30 0C13.433 0 0 13.433 0 30c0 16.566 13.433 30 30 30s30-13.434 30-30C60 13.429 46.567 0 30 0zm7.756 29.996L32.838 30l-.004 17.999h-6.745V30h-4.501v-6.202l4.501-.004-.008-3.653c0-5.063 1.372-8.141 7.332-8.141h4.966v6.205h-3.105c-2.322 0-2.436.866-2.436 2.483l-.007 3.105h5.581l-.656 6.203zm107.849 17.943c0 4.397-2.719 7.873-10.416 8.153a30.128 30.128 0 0 1-10.951-10.715c1.389-3.428 5.725-6.037 10.683-5.981a13.09 13.09 0 0 1 3.911.627c3.275 2.276 5.918 3.699 6.581 6.295.124.526.192 1.067.192 1.621zM150 0c-8.669 0-16.477 3.679-21.953 9.556a15.386 15.386 0 0 1 7.436-1.912h15.025l-3.357 3.523h-3.944c2.783 1.596 4.263 4.879 4.263 8.498 0 3.322-1.84 5.998-4.439 8.029-2.537 1.982-3.018 2.811-3.018 4.498 0 1.438 3.03 3.58 4.424 4.625 4.854 3.641 5.834 5.93 5.834 10.479 0 4.613-4.039 9.207-10.891 10.769A29.952 29.952 0 0 0 150 60c16.568 0 30-13.432 30-30.001C180 13.431 166.568 0 150 0zm15 22.499v7.5h-3.75v-7.5h-7.5v-3.75h7.5v-7.5H165v7.5h7.5v3.75H165zm-23.568-2.607c.698 5.318-1.633 8.74-5.68 8.619-4.051-.121-7.899-3.836-8.599-9.154-.698-5.318 2.017-9.389 6.066-9.27 4.049.123 7.513 4.486 8.213 9.805zm-8.491 17.729c-4.375 0-8.093 1.51-10.713 3.742A29.922 29.922 0 0 1 120 29.999c0-3.324.542-6.525 1.541-9.516.432 5.828 4.532 10.324 11.307 10.324.499 0 .982-.024 1.458-.059-.466.893-.798 1.886-.798 2.929 0 1.757.966 2.759 2.16 3.921-.902 0-1.773.023-2.727.023zM270 60c-2.76 0-5.42-.359-7.98-1.08-2.561-.719-4.949-1.729-7.17-3.029s-4.24-2.858-6.061-4.68a29.96 29.96 0 0 1-4.68-6.061 30.25 30.25 0 0 1-3.029-7.172A29.265 29.265 0 0 1 240 30c0-2.76.359-5.42 1.08-7.979a30.359 30.359 0 0 1 3.029-7.17 29.917 29.917 0 0 1 4.68-6.061c1.82-1.82 3.84-3.38 6.061-4.68a30.379 30.379 0 0 1 7.17-3.03A29.378 29.378 0 0 1 270 0c4.119 0 8.01.79 11.67 2.37s6.84 3.72 9.539 6.42c2.701 2.7 4.84 5.88 6.42 9.54S300 25.88 300 30c0 2.761-.359 5.42-1.08 7.979a30.516 30.516 0 0 1-3.029 7.172 29.89 29.89 0 0 1-4.682 6.061 29.841 29.841 0 0 1-6.059 4.68 30.267 30.267 0 0 1-7.172 3.029A29.308 29.308 0 0 1 270 60zm14.459-42.359H256.02c-.279 0-.52.09-.721.27-.199.179-.299.429-.299.749v3.18c0 .16.061.24.18.24l14.939 8.521.121.06c.078 0 .14-.021.18-.06l14.461-8.521a.446.446 0 0 1 .18-.06.475.475 0 0 0 .181-.061c.159 0 .239-.08.239-.239v-3.06c0-.32-.102-.57-.301-.75-.2-.18-.44-.269-.721-.269zM264.061 30.42c.039-.04.06-.101.06-.18 0-.12-.039-.181-.119-.181l-8.58-4.92c-.121-.039-.221-.039-.301 0-.08 0-.119.061-.119.18v12.9c0 .121.06.2.181.24h.118c.08 0 .121-.02.121-.061l8.639-7.978zm10.439.96c-.041-.12-.141-.14-.301-.062l-3.301 1.921c-.398.239-.818.239-1.26 0l-2.88-1.619c-.12-.08-.221-.08-.301 0l-10.979 10.2c-.039.041-.06.121-.06.24 0 .041.039.1.119.18.239.08.399.121.479.121h28.142c.08 0 .159-.041.239-.121 0-.16-.021-.26-.061-.299L274.5 31.38zm10.799-6.481h-.238l-8.16 4.86c-.08 0-.121.06-.121.181-.038.039-.02.1.062.18l8.16 8.819c.08.08.142.119.181.119h.118c.121-.119.183-.199.183-.238V25.14c-.004-.08-.064-.161-.185-.241z"/><path d="M210 0c-16.568 0-30 13.432-30 30 0 16.568 13.432 30 30 30s30-13.432 30-30c0-16.568-13.432-30-30-30zm-11.25 45a3.75 3.75 0 1 1 .001-7.501A3.75 3.75 0 0 1 198.75 45zm10.312 0c0-7.754-6.31-14.062-14.062-14.062v-5.625c10.855 0 19.688 8.832 19.688 19.688L209.062 45zm11.25 0c0-6.761-2.633-13.117-7.414-17.898S201.761 19.688 195 19.688v-5.625c8.264 0 16.033 3.218 21.877 9.062 5.842 5.843 9.061 13.612 9.061 21.876L220.312 45zM321.84 21.78c.76-.76 1.61-1.32 2.551-1.68.939-.36 1.91-.54 2.91-.54s1.969.18 2.91.54c.939.36 1.789.92 2.549 1.68a7.62 7.62 0 0 1 1.711 2.55c.38.94.57 1.9.57 2.88s-.19 1.94-.57 2.88a7.644 7.644 0 0 1-1.711 2.551 7.6 7.6 0 0 1-2.549 1.709c-.941.381-1.91.57-2.91.57s-1.971-.189-2.91-.57a7.628 7.628 0 0 1-2.551-1.709c-.76-.761-1.32-1.61-1.68-2.551-.359-.94-.54-1.9-.54-2.88s.181-1.94.54-2.88c.359-.94.92-1.79 1.68-2.55zm-19.47-3.45c1.58-3.66 3.72-6.84 6.42-9.54s5.88-4.84 9.54-6.42S325.881 0 330 0c2.76 0 5.42.36 7.98 1.08 2.56.72 4.948 1.73 7.17 3.03 2.22 1.3 4.239 2.86 6.061 4.68a29.982 29.982 0 0 1 7.709 13.23c.721 2.56 1.08 5.22 1.08 7.98s-.359 5.42-1.08 7.98a30.453 30.453 0 0 1-3.029 7.17c-1.301 2.221-2.859 4.24-4.68 6.061s-3.841 3.379-6.061 4.68a30.453 30.453 0 0 1-7.17 3.029c-2.56.721-5.22 1.08-7.98 1.08s-5.42-.359-7.979-1.08a30.433 30.433 0 0 1-7.172-3.029 29.93 29.93 0 0 1-6.06-4.68 29.93 29.93 0 0 1-4.681-6.061 30.453 30.453 0 0 1-3.029-7.17A29.333 29.333 0 0 1 300 30c0-4.12.79-8.01 2.37-11.67zm12.12 14.1c.66 1.7 1.67 3.23 3.028 4.59a13.585 13.585 0 0 0 3.632 2.61c1.34.66 2.72 1.09 4.14 1.29a13.84 13.84 0 0 0 4.261-.059 14.065 14.065 0 0 0 4.109-1.381l6.24 6.239c.68.72 1.528 1.08 2.55 1.08 1.021 0 1.87-.36 2.55-1.08.721-.68 1.08-1.521 1.08-2.521 0-.998-.359-1.859-1.08-2.579l-6-6c.84-1.319 1.43-2.74 1.77-4.26.342-1.52.432-3.05.271-4.59a13.837 13.837 0 0 0-1.229-4.44 13.468 13.468 0 0 0-2.729-3.87c-1.359-1.36-2.89-2.37-4.59-3.03-1.7-.66-3.431-.99-5.189-.99-1.761 0-3.49.33-5.189.99-1.7.66-3.229 1.67-4.592 3.03-1.358 1.36-2.368 2.89-3.028 4.59a14.123 14.123 0 0 0-.005 10.381z"/></g></svg>